<?xml version="1.0" standalone="no"?><!-- Generator: Gravit.io --><svg xmlns="http://www.w3.org/2000/svg" xmlns:xlink="http://www.w3.org/1999/xlink" style="isolation:isolate" viewBox="0 0 2000 2000" width="2000" height="2000"><defs><clipPath id="_clipPath_4uSEsMEAbEU22XSbWz68sAd3J7q1t2tq"><rect width="2000" height="2000"/></clipPath></defs><g clip-path="url(#_clipPath_4uSEsMEAbEU22XSbWz68sAd3J7q1t2tq)"><g id="Group"><path d=" M 581.05 632.5 L 581.05 632.5 L 581.05 632.5 Q 660.43 632.5 728.05 662.635 L 728.05 662.635 L 728.05 662.635 Q 795.67 692.77 844.18 743.485 L 844.18 743.485 L 844.18 743.485 Q 892.69 794.2 920.62 861.085 L 920.62 861.085 L 920.62 861.085 Q 948.55 927.97 948.55 1000 L 948.55 1000 L 948.55 1035.28 L 581.05 1035.28 L 581.05 963.25 L 875.05 963.25 L 875.05 963.25 Q 875.05 929.44 855.205 884.605 L 855.205 884.605 L 855.205 884.605 Q 835.36 839.77 797.14 800.08 L 797.14 800.08 L 797.14 800.08 Q 758.92 760.39 704.53 733.195 L 704.53 733.195 L 704.53 733.195 Q 650.14 706 581.05 706 L 581.05 706 L 581.05 706 Q 522.25 706 469.33 728.785 L 469.33 728.785 L 469.33 728.785 Q 416.41 751.57 375.985 791.26 L 375.985 791.26 L 375.985 791.26 Q 335.56 830.95 311.305 884.605 L 311.305 884.605 L 311.305 884.605 Q 287.05 938.26 287.05 1000 L 287.05 1000 L 287.05 1000 Q 287.05 1074.97 316.45 1130.83 L 316.45 1130.83 L 316.45 1130.83 Q 345.85 1186.69 389.95 1222.705 L 389.95 1222.705 L 389.95 1222.705 Q 434.05 1258.72 485.5 1276.36 L 485.5 1276.36 L 485.5 1276.36 Q 536.95 1294 581.05 1294 L 581.05 1294 L 581.05 1367.5 L 581.05 1367.5 Q 494.32 1367.5 426.7 1335.895 L 426.7 1335.895 L 426.7 1335.895 Q 359.08 1304.29 311.305 1252.84 L 311.305 1252.84 L 311.305 1252.84 Q 263.53 1201.39 238.54 1135.24 L 238.54 1135.24 L 238.54 1135.24 Q 213.55 1069.09 213.55 1000 L 213.55 1000 L 213.55 1000 Q 213.55 927.97 241.48 861.085 L 241.48 861.085 L 241.48 861.085 Q 269.41 794.2 318.655 743.485 L 318.655 743.485 L 318.655 743.485 Q 367.9 692.77 434.785 662.635 L 434.785 662.635 L 434.785 662.635 Q 501.67 632.5 581.05 632.5 Z " fill="rgb(0,0,0)"/><path d=" M 580 1294 L 1427.77 1294 L 1427.77 1367.5 L 580 1367.5 L 580 1294 Z " fill="rgb(0,0,0)"/><path d=" M 251.77 963.25 L 583.99 963.25 L 583.99 1035.28 L 251.77 1035.28 L 251.77 963.25 Z " fill="rgb(0,0,0)"/><path d=" M 1132.3 828.01 L 1132.3 828.01 L 1132.3 828.01 Q 1132.3 877.99 1166.11 905.185 L 1166.11 905.185 L 1166.11 905.185 Q 1199.92 932.38 1246.96 944.875 L 1246.96 944.875 L 1246.96 944.875 Q 1294 957.37 1343.245 959.575 L 1343.245 959.575 L 1343.245 959.575 Q 1392.49 961.78 1421.89 961.78 L 1421.89 961.78 L 1421.89 961.78 Q 1461.58 961.78 1523.32 967.66 L 1523.32 967.66 L 1523.32 967.66 Q 1585.06 973.54 1643.86 994.12 L 1643.86 994.12 L 1643.86 994.12 Q 1702.66 1014.7 1744.555 1054.39 L 1744.555 1054.39 L 1744.555 1054.39 Q 1786.45 1094.08 1786.45 1163.17 L 1786.45 1163.17 L 1786.45 1163.17 Q 1786.45 1233.73 1744.555 1274.155 L 1744.555 1274.155 L 1744.555 1274.155 Q 1702.66 1314.58 1643.86 1335.16 L 1643.86 1335.16 L 1643.86 1335.16 Q 1585.06 1355.74 1523.32 1361.62 L 1523.32 1361.62 L 1523.32 1361.62 Q 1461.58 1367.5 1421.89 1367.5 L 1421.89 1367.5 L 1421.89 1294 L 1421.89 1294 Q 1436.59 1294 1464.52 1293.265 L 1464.52 1293.265 L 1464.52 1293.265 Q 1492.45 1292.53 1524.79 1288.855 L 1524.79 1288.855 L 1524.79 1288.855 Q 1557.13 1285.18 1590.205 1277.095 L 1590.205 1277.095 L 1590.205 1277.095 Q 1623.28 1269.01 1650.475 1254.31 L 1650.475 1254.31 L 1650.475 1254.31 Q 1677.67 1239.61 1695.31 1216.825 L 1695.31 1216.825 L 1695.31 1216.825 Q 1712.95 1194.04 1712.95 1160.23 L 1712.95 1160.23 L 1712.95 1160.23 Q 1712.95 1113.19 1677.67 1088.2 L 1677.67 1088.2 L 1677.67 1088.2 Q 1642.39 1063.21 1594.615 1051.45 L 1594.615 1051.45 L 1594.615 1051.45 Q 1546.84 1039.69 1498.33 1037.485 L 1498.33 1037.485 L 1498.33 1037.485 Q 1449.82 1035.28 1421.89 1035.28 L 1421.89 1035.28 L 1421.89 1035.28 Q 1379.26 1035.28 1316.05 1029.4 L 1316.05 1029.4 L 1316.05 1029.4 Q 1252.84 1023.52 1194.04 1002.94 L 1194.04 1002.94 L 1194.04 1002.94 Q 1135.24 982.36 1093.345 941.935 L 1093.345 941.935 L 1093.345 941.935 Q 1051.45 901.51 1051.45 832.42 L 1051.45 832.42 L 1051.45 832.42 Q 1051.45 764.8 1093.345 724.375 L 1093.345 724.375 L 1093.345 724.375 Q 1135.24 683.95 1194.04 664.105 L 1194.04 664.105 L 1194.04 664.105 Q 1252.84 644.26 1316.785 638.38 L 1316.785 638.38 L 1316.785 638.38 Q 1380.73 632.5 1424.83 632.5 L 1424.83 632.5 L 1786.45 632.5 L 1786.45 706 L 1416.01 706 L 1416.01 706 Q 1385.14 706 1336.63 708.205 L 1336.63 708.205 L 1336.63 708.205 Q 1288.12 710.41 1242.55 722.17 L 1242.55 722.17 L 1242.55 722.17 Q 1196.98 733.93 1164.64 758.92 L 1164.64 758.92 L 1164.64 758.92 Q 1132.3 783.91 1132.3 828.01 Z " fill="rgb(0,0,0)"/></g></g></svg>