<?xml version="1.0" standalone="no"?><!-- Generator: Gravit.io --><svg xmlns="http://www.w3.org/2000/svg" xmlns:xlink="http://www.w3.org/1999/xlink" style="isolation:isolate" viewBox="0 0 2000 2000" width="2000" height="2000"><defs><clipPath id="_clipPath_5BCAxFuY3WBJJ2t0SZXJ3aXTm3a0hPtI"><rect width="2000" height="2000"/></clipPath></defs><g clip-path="url(#_clipPath_5BCAxFuY3WBJJ2t0SZXJ3aXTm3a0hPtI)"><g id="Group"><path d=" M 170 933.25 L 170 933.25 L 170 933.25 Q 197 933.25 220 943.5 L 220 943.5 L 220 943.5 Q 243 953.75 259.5 971 L 259.5 971 L 259.5 971 Q 276 988.25 285.5 1011 L 285.5 1011 L 285.5 1011 Q 295 1033.75 295 1058.25 L 295 1058.25 L 295 1070.25 L 170 1070.25 L 170 1045.75 L 270 1045.75 L 270 1045.75 Q 270 1034.25 263.25 1019 L 263.25 1019 L 263.25 1019 Q 256.5 1003.75 243.5 990.25 L 243.5 990.25 L 243.5 990.25 Q 230.5 976.75 212 967.5 L 212 967.5 L 212 967.5 Q 193.5 958.25 170 958.25 L 170 958.25 L 170 958.25 Q 150 958.25 132 966 L 132 966 L 132 966 Q 114 973.75 100.25 987.25 L 100.25 987.25 L 100.25 987.25 Q 86.5 1000.75 78.25 1019 L 78.25 1019 L 78.25 1019 Q 70 1037.25 70 1058.25 L 70 1058.25 L 70 1058.25 Q 70 1083.75 80 1102.75 L 80 1102.75 L 80 1102.75 Q 90 1121.75 105 1134 L 105 1134 L 105 1134 Q 120 1146.25 137.5 1152.25 L 137.5 1152.25 L 137.5 1152.25 Q 155 1158.25 170 1158.25 L 170 1158.25 L 170 1183.25 L 170 1183.25 Q 140.5 1183.25 117.5 1172.5 L 117.5 1172.5 L 117.5 1172.5 Q 94.5 1161.75 78.25 1144.25 L 78.25 1144.25 L 78.25 1144.25 Q 62 1126.75 53.5 1104.25 L 53.5 1104.25 L 53.5 1104.25 Q 45 1081.75 45 1058.25 L 45 1058.25 L 45 1058.25 Q 45 1033.75 54.5 1011 L 54.5 1011 L 54.5 1011 Q 64 988.25 80.75 971 L 80.75 971 L 80.75 971 Q 97.5 953.75 120.25 943.5 L 120.25 943.5 L 120.25 943.5 Q 143 933.25 170 933.25 Z  M 357 870.25 L 357 812.25 L 357 1183.25 L 332.5 1183.25 L 332.5 870.25 L 357 870.25 Z  M 395 1061.75 L 395 936.25 L 421.5 936.25 L 421.5 1061.469 L 421.5 1061.469 Q 421.5 1081.424 428.732 1099.134 L 428.732 1099.134 L 428.732 1099.134 Q 435.963 1116.844 448.93 1130.064 L 448.93 1130.064 L 448.93 1130.064 Q 461.897 1143.285 480.6 1151.017 L 480.6 1151.017 L 480.6 1151.017 Q 499.303 1158.75 522.244 1158.75 L 522.244 1158.75 L 522.244 1158.75 Q 541.695 1158.75 559.4 1151.069 L 559.4 1151.069 L 559.4 1151.069 Q 577.105 1143.387 590.072 1130.164 L 590.072 1130.164 L 590.072 1130.164 Q 603.039 1116.942 610.77 1099.203 L 610.77 1099.203 L 610.77 1099.203 Q 618.5 1081.465 618.5 1061.471 L 618.5 1061.471 L 645 1061.471 L 645 1061.471 Q 645 1085.963 635.731 1108.193 L 635.731 1108.193 L 635.731 1108.193 Q 626.463 1130.423 609.93 1147.39 L 609.93 1147.39 L 609.93 1147.39 Q 593.397 1164.358 570.852 1174.554 L 570.852 1174.554 L 570.852 1174.554 Q 548.307 1184.75 522.255 1184.75 L 522.255 1184.75 L 522.255 1184.75 Q 492.695 1184.75 469.148 1174.25 L 469.148 1174.25 L 469.148 1174.25 Q 445.601 1163.75 429.068 1146.5 L 429.068 1146.5 L 429.068 1146.5 Q 412.535 1129.25 403.768 1107 L 403.768 1107 L 403.768 1107 Q 395 1084.75 395 1061.75 L 395 1061.75 Z  M 709 1004.25 L 709 1004.25 L 709 1004.25 Q 709 1021.25 720.5 1030.5 L 720.5 1030.5 L 720.5 1030.5 Q 732 1039.75 748 1044 L 748 1044 L 748 1044 Q 764 1048.25 780.75 1049 L 780.75 1049 L 780.75 1049 Q 797.5 1049.75 807.5 1049.75 L 807.5 1049.75 L 807.5 1049.75 Q 821 1049.75 842 1051.75 L 842 1051.75 L 842 1051.75 Q 863 1053.75 883 1060.75 L 883 1060.75 L 883 1060.75 Q 903 1067.75 917.25 1081.25 L 917.25 1081.25 L 917.25 1081.25 Q 931.5 1094.75 931.5 1118.25 L 931.5 1118.25 L 931.5 1118.25 Q 931.5 1142.25 917.25 1156 L 917.25 1156 L 917.25 1156 Q 903 1169.75 883 1176.75 L 883 1176.75 L 883 1176.75 Q 863 1183.75 842 1185.75 L 842 1185.75 L 842 1185.75 Q 821 1187.75 807.5 1187.75 L 807.5 1187.75 L 807.5 1162.75 L 807.5 1162.75 Q 812.5 1162.75 822 1162.5 L 822 1162.5 L 822 1162.5 Q 831.5 1162.25 842.5 1161 L 842.5 1161 L 842.5 1161 Q 853.5 1159.75 864.75 1157 L 864.75 1157 L 864.75 1157 Q 876 1154.25 885.25 1149.25 L 885.25 1149.25 L 885.25 1149.25 Q 894.5 1144.25 900.5 1136.5 L 900.5 1136.5 L 900.5 1136.5 Q 906.5 1128.75 906.5 1117.25 L 906.5 1117.25 L 906.5 1117.25 Q 906.5 1101.25 894.5 1092.75 L 894.5 1092.75 L 894.5 1092.75 Q 882.5 1084.25 866.25 1080.25 L 866.25 1080.25 L 866.25 1080.25 Q 850 1076.25 833.5 1075.5 L 833.5 1075.5 L 833.5 1075.5 Q 817 1074.75 807.5 1074.75 L 807.5 1074.75 L 807.5 1074.75 Q 793 1074.75 771.5 1072.75 L 771.5 1072.75 L 771.5 1072.75 Q 750 1070.75 730 1063.75 L 730 1063.75 L 730 1063.75 Q 710 1056.75 695.75 1043 L 695.75 1043 L 695.75 1043 Q 681.5 1029.25 681.5 1005.75 L 681.5 1005.75 L 681.5 1005.75 Q 681.5 982.75 695.75 969 L 695.75 969 L 695.75 969 Q 710 955.25 730 948.5 L 730 948.5 L 730 948.5 Q 750 941.75 771.75 939.75 L 771.75 939.75 L 771.75 939.75 Q 793.5 937.75 808.5 937.75 L 808.5 937.75 L 931.5 937.75 L 931.5 962.75 L 805.5 962.75 L 805.5 962.75 Q 795 962.75 778.5 963.5 L 778.5 963.5 L 778.5 963.5 Q 762 964.25 746.5 968.25 L 746.5 968.25 L 746.5 968.25 Q 731 972.25 720 980.75 L 720 980.75 L 720 980.75 Q 709 989.25 709 1004.25 Z  M 1104.5 933.25 L 1104.5 933.25 L 1104.5 933.25 Q 1131.5 933.25 1154.5 943.5 L 1154.5 943.5 L 1154.5 943.5 Q 1177.5 953.75 1194 971 L 1194 971 L 1194 971 Q 1210.5 988.25 1220 1011 L 1220 1011 L 1220 1011 Q 1229.5 1033.75 1229.5 1058.25 L 1229.5 1058.25 L 1229.5 1070.25 L 1104.5 1070.25 L 1104.5 1045.75 L 1204.5 1045.75 L 1204.5 1045.75 Q 1204.5 1034.25 1197.75 1019 L 1197.75 1019 L 1197.75 1019 Q 1191 1003.75 1178 990.25 L 1178 990.25 L 1178 990.25 Q 1165 976.75 1146.5 967.5 L 1146.5 967.5 L 1146.5 967.5 Q 1128 958.25 1104.5 958.25 L 1104.5 958.25 L 1104.5 958.25 Q 1084.5 958.25 1066.5 966 L 1066.5 966 L 1066.5 966 Q 1048.5 973.75 1034.75 987.25 L 1034.75 987.25 L 1034.75 987.25 Q 1021 1000.75 1012.75 1019 L 1012.75 1019 L 1012.75 1019 Q 1004.5 1037.25 1004.5 1058.25 L 1004.5 1058.25 L 1004.5 1058.25 Q 1004.5 1083.75 1014.5 1102.75 L 1014.5 1102.75 L 1014.5 1102.75 Q 1024.5 1121.75 1039.5 1134 L 1039.5 1134 L 1039.5 1134 Q 1054.5 1146.25 1072 1152.25 L 1072 1152.25 L 1072 1152.25 Q 1089.5 1158.25 1104.5 1158.25 L 1104.5 1158.25 L 1104.5 1183.25 L 1104.5 1183.25 Q 1075 1183.25 1052 1172.5 L 1052 1172.5 L 1052 1172.5 Q 1029 1161.75 1012.75 1144.25 L 1012.75 1144.25 L 1012.75 1144.25 Q 996.5 1126.75 988 1104.25 L 988 1104.25 L 988 1104.25 Q 979.5 1081.75 979.5 1058.25 L 979.5 1058.25 L 979.5 1058.25 Q 979.5 1033.75 989 1011 L 989 1011 L 989 1011 Q 998.5 988.25 1015.25 971 L 1015.25 971 L 1015.25 971 Q 1032 953.75 1054.75 943.5 L 1054.75 943.5 L 1054.75 943.5 Q 1077.5 933.25 1104.5 933.25 Z  M 1267.5 1061.75 L 1267.5 936.25 L 1294 936.25 L 1294 1061.469 L 1294 1061.469 Q 1294 1081.424 1301.232 1099.134 L 1301.232 1099.134 L 1301.232 1099.134 Q 1308.463 1116.844 1321.43 1130.064 L 1321.43 1130.064 L 1321.43 1130.064 Q 1334.397 1143.285 1353.1 1151.017 L 1353.1 1151.017 L 1353.1 1151.017 Q 1371.803 1158.75 1394.744 1158.75 L 1394.744 1158.75 L 1394.744 1158.75 Q 1414.195 1158.75 1431.9 1151.069 L 1431.9 1151.069 L 1431.9 1151.069 Q 1449.605 1143.387 1462.572 1130.164 L 1462.572 1130.164 L 1462.572 1130.164 Q 1475.539 1116.942 1483.27 1099.203 L 1483.27 1099.203 L 1483.27 1099.203 Q 1491 1081.465 1491 1061.471 L 1491 1061.471 L 1517.5 1061.471 L 1517.5 1061.471 Q 1517.5 1085.963 1508.231 1108.193 L 1508.231 1108.193 L 1508.231 1108.193 Q 1498.963 1130.423 1482.43 1147.39 L 1482.43 1147.39 L 1482.43 1147.39 Q 1465.897 1164.358 1443.352 1174.554 L 1443.352 1174.554 L 1443.352 1174.554 Q 1420.807 1184.75 1394.755 1184.75 L 1394.755 1184.75 L 1394.755 1184.75 Q 1365.195 1184.75 1341.648 1174.25 L 1341.648 1174.25 L 1341.648 1174.25 Q 1318.101 1163.75 1301.568 1146.5 L 1301.568 1146.5 L 1301.568 1146.5 Q 1285.035 1129.25 1276.268 1107 L 1276.268 1107 L 1276.268 1107 Q 1267.5 1084.75 1267.5 1061.75 L 1267.5 1061.75 Z  M 1491 1061.471 Q 1491 1035.25 1499 1012.75 Q 1507 990.25 1521.25 973.5 Q 1535.5 956.75 1554.5 947 Q 1575.5 937.25 1597.5 937.25 L 1597.5 937.25 L 1597.5 937.25 Q 1623 937.25 1641.25 947.5 L 1641.25 947.5 L 1641.25 947.5 Q 1659.5 957.75 1671 969.75 L 1671 969.75 L 1671 969.75 Q 1684.5 984.25 1693.5 1002.25 L 1693.5 1002.25 L 1693.5 1002.25 Q 1701.5 984.25 1714.5 969.75 L 1714.5 969.75 L 1714.5 969.75 Q 1726 957.75 1744 947.5 L 1744 947.5 L 1744 947.5 Q 1762 937.25 1789 937.25 L 1789 937.25 L 1789 937.25 Q 1810 937.25 1829 946.25 L 1829 946.25 L 1829 946.25 Q 1848 955.25 1862.5 971.25 L 1862.5 971.25 L 1862.5 971.25 Q 1877 987.25 1885.5 1010.25 L 1885.5 1010.25 L 1885.5 1010.25 Q 1894 1033.25 1894 1060.75 L 1894 1060.75 L 1894 1187.25 L 1869.5 1187.25 L 1869.5 1060.75 L 1869.5 1060.75 Q 1869.5 1035.25 1860.5 1016.5 L 1860.5 1016.5 L 1860.5 1016.5 Q 1851.5 997.75 1838.75 985.75 L 1838.75 985.75 L 1838.75 985.75 Q 1826 973.75 1812.25 967.75 L 1812.25 967.75 L 1812.25 967.75 Q 1798.5 961.75 1789 961.75 L 1789 961.75 L 1789 961.75 Q 1770.5 961.75 1755 970.25 L 1755 970.25 L 1755 970.25 Q 1739.5 978.75 1728.5 992.75 L 1728.5 992.75 L 1728.5 992.75 Q 1717.5 1006.75 1711.5 1024.5 L 1711.5 1024.5 L 1711.5 1024.5 Q 1705.5 1042.25 1705.5 1060.75 L 1705.5 1060.75 L 1705.5 1187.25 L 1681 1187.25 L 1681 1060.75 L 1681 1060.75 Q 1681 1041.25 1675 1023.25 L 1675 1023.25 L 1675 1023.25 Q 1669 1005.25 1658 991.5 L 1658 991.5 L 1658 991.5 Q 1647 977.75 1631.5 969.75 L 1631.5 969.75 L 1631.5 969.75 Q 1616 961.75 1597.5 961.75 L 1597.5 961.75 L 1597.5 961.75 Q 1579.5 961.75 1565 969.5 Q 1550.5 977.25 1539.5 990.5 Q 1528.5 1003.75 1522 1021.75 Q 1517.5 1040.471 1517.5 1061.471 L 1491 1061.471 Z " fill-rule="evenodd" fill="rgb(0,0,0)"/><rect x="169" y="1158.25" width="188" height="25" transform="matrix(1,0,0,1,0,0)" fill="rgb(0,0,0)"/><rect x="332.5" y="870.25" width="1622.5" height="25" transform="matrix(1,0,0,1,0,0)" fill="rgb(0,0,0)"/></g></g></svg>